<svg data-v-0dd9719b="" version="1.0" xmlns="http://www.w3.org/2000/svg" xmlns:xlink="http://www.w3.org/1999/xlink" width="100%" height="100%" viewBox="0 0 340.000000 250.000000" preserveAspectRatio="xMidYMid meet" color-interpolation-filters="sRGB" style="margin: auto;"> <rect data-v-0dd9719b="" x="0" y="0" width="100%" height="100%" fill="#fff" fill-opacity="1" class="background"></rect> <rect data-v-0dd9719b="" x="0" y="0" width="100%" height="100%" fill="url(#watermark)" fill-opacity="1" class="watermarklayer"></rect> <g data-v-0dd9719b="" fill="#333" class="icon-text-wrapper icon-svg-group iconsvg" transform="translate(80.52000433206558,84.6349983215332)"><g class="iconsvg-imagesvg" transform="translate(59.47999572753906,0)"><g><rect fill="#333" fill-opacity="0" stroke-width="2" x="0" y="0" width="60" height="60" class="image-rect"></rect> <svg x="0" y="0" width="60" height="60" filtersec="colorsb1863348784" class="image-svg-svg primary" style="overflow: visible;"><svg xmlns="http://www.w3.org/2000/svg" viewBox="0 0 55.34000015258789 55.339996337890625"><g fill-rule="evenodd"><path fill="gray" d="M38.2 44.82L27.67 55.34 17.14 44.82 27.7 17.38l10.5 27.44z"></path><path fill="#00ba2d" d="M25.96 12.64L14.05 41.72 0 27.67 27.67 0l27.67 27.67L41.3 41.72 29.43 12.64h-3.47z"></path></g></svg></svg> <!----></g></g> <g transform="translate(0,67)"><g data-gra="path-name" fill-rule="" class="tp-name iconsvg-namesvg"><g transform="scale(1)"><g><path d="M0.63-12.84L0.63-13.21Q1.1-13.19 1.89-13.17 2.69-13.16 3.47-13.16L3.47-13.16Q4.37-13.16 5.21-13.17 6.05-13.19 6.4-13.19L6.4-13.19Q8.99-13.19 10.28-12.17 11.57-11.14 11.57-9.52L11.57-9.52Q11.57-8.85 11.31-8.11 11.05-7.37 10.42-6.75 9.8-6.12 8.71-5.73 7.63-5.34 5.99-5.34L5.99-5.34 4.09-5.34 4.09-5.71 5.8-5.71Q6.9-5.71 7.47-6.21 8.04-6.72 8.26-7.54 8.47-8.36 8.47-9.31L8.47-9.31Q8.47-11.08 7.95-11.96 7.43-12.84 6.16-12.84L6.16-12.84Q5.43-12.84 5.22-12.52 5-12.2 5-11.23L5-11.23 5-2.09Q5-1.36 5.15-1.01 5.3-0.65 5.73-0.54 6.16-0.43 7-0.41L7-0.41 7 0Q6.42-0.02 5.5-0.04 4.59-0.06 3.58-0.06L3.58-0.06Q2.78-0.06 2.02-0.04 1.25-0.02 0.63 0L0.63 0 0.63-0.37Q1.23-0.41 1.53-0.52 1.83-0.63 1.93-0.97 2.03-1.31 2.03-1.98L2.03-1.98 2.03-11.23Q2.03-11.92 1.93-12.25 1.83-12.58 1.52-12.7 1.21-12.82 0.63-12.84L0.63-12.84ZM17.26-13.45L17.26-13.45Q18.36-13.45 18.96-13.22 19.56-12.99 19.99-12.73L19.99-12.73Q20.21-12.6 20.35-12.53 20.49-12.47 20.62-12.47L20.62-12.47Q20.92-12.47 21.03-13.29L21.03-13.29 21.46-13.29Q21.44-12.93 21.41-12.44 21.39-11.94 21.38-11.14 21.37-10.34 21.37-9.03L21.37-9.03 20.94-9.03Q20.86-10 20.49-10.92 20.12-11.83 19.43-12.42 18.75-13.01 17.76-13.01L17.76-13.01Q16.87-13.01 16.29-12.5 15.71-12 15.71-11.1L15.71-11.1Q15.71-10.36 16.09-9.82 16.46-9.29 17.18-8.79 17.9-8.29 18.92-7.58L18.92-7.58Q19.82-7 20.53-6.42 21.24-5.84 21.66-5.11 22.09-4.39 22.09-3.38L22.09-3.38Q22.09-2.15 21.45-1.34 20.81-0.54 19.76-0.14 18.72 0.26 17.47 0.26L17.47 0.26Q16.31 0.26 15.62 0.04 14.93-0.19 14.46-0.43L14.46-0.43Q14.05-0.69 13.83-0.69L13.83-0.69Q13.53-0.69 13.42 0.13L13.42 0.13 12.99 0.13Q13.03-0.32 13.03-0.91 13.04-1.51 13.05-2.47 13.06-3.43 13.06-4.91L13.06-4.91 13.49-4.91Q13.57-3.68 13.91-2.6 14.26-1.53 14.98-0.88 15.69-0.22 16.89-0.22L16.89-0.22Q17.86-0.22 18.53-0.75 19.2-1.27 19.2-2.31L19.2-2.31Q19.2-3.47 18.42-4.23 17.63-4.98 16.4-5.78L16.4-5.78Q15.53-6.36 14.76-6.94 14-7.52 13.54-8.27 13.08-9.01 13.08-10.04L13.08-10.04Q13.08-11.22 13.67-11.97 14.26-12.73 15.22-13.09 16.18-13.45 17.26-13.45ZM33.61-13.21L33.61-13.21 33.61-12.84Q33.01-12.82 32.7-12.7 32.39-12.58 32.3-12.25 32.21-11.92 32.21-11.23L32.21-11.23 32.21-1.98Q32.21-1.31 32.31-0.97 32.41-0.63 32.71-0.52 33.01-0.41 33.61-0.37L33.61-0.37 33.61 0Q33.1-0.04 32.34-0.05 31.57-0.06 30.79-0.06L30.79-0.06Q29.88-0.06 29.1-0.05 28.33-0.04 27.84 0L27.84 0 27.84-0.37Q28.44-0.41 28.74-0.52 29.04-0.63 29.14-0.97 29.24-1.31 29.24-1.98L29.24-1.98 29.24-11.23Q29.24-11.92 29.14-12.25 29.04-12.58 28.73-12.7 28.42-12.82 27.84-12.84L27.84-12.84 27.84-13.21Q28.33-13.19 29.1-13.17 29.88-13.16 30.79-13.16L30.79-13.16Q31.57-13.16 32.34-13.17 33.1-13.19 33.61-13.21ZM47.16-13.21L47.16-13.21 47.16-12.84Q46.56-12.76 46.26-12.53 45.96-12.3 45.86-11.79 45.76-11.29 45.76-10.38L45.76-10.38 45.76 0.04Q45.53 0.02 45.3 0.02 45.07 0.02 44.8 0.04L44.8 0.04 36.71-10.23 36.71-3.06Q36.71-2.03 36.82-1.48 36.93-0.93 37.31-0.7 37.69-0.47 38.52-0.37L38.52-0.37 38.52 0Q38.16-0.04 37.58-0.05 37-0.06 36.5-0.06L36.5-0.06Q36.07-0.06 35.62-0.05 35.18-0.04 34.88 0L34.88 0 34.88-0.37Q35.47-0.47 35.77-0.69 36.07-0.91 36.17-1.43 36.28-1.94 36.28-2.84L36.28-2.84 36.28-11.23Q36.28-11.92 36.17-12.25 36.07-12.58 35.76-12.7 35.46-12.82 34.88-12.84L34.88-12.84 34.88-13.21Q35.18-13.19 35.62-13.17 36.07-13.16 36.5-13.16L36.5-13.16Q36.95-13.16 37.36-13.17 37.77-13.19 38.1-13.21L38.1-13.21 45.33-4.31 45.33-10.15Q45.33-11.18 45.21-11.73 45.1-12.28 44.72-12.52 44.34-12.76 43.52-12.84L43.52-12.84 43.52-13.21Q43.87-13.19 44.45-13.17 45.03-13.16 45.53-13.16L45.53-13.16Q45.98-13.16 46.42-13.17 46.86-13.19 47.16-13.21ZM59.68-13.21L59.68-13.21Q59.6-12.26 59.57-11.38 59.55-10.51 59.55-10.04L59.55-10.04Q59.55-9.63 59.56-9.26 59.58-8.88 59.6-8.62L59.6-8.62 59.17-8.62Q58.87-10.19 58.42-11.1 57.96-12.02 57.33-12.4 56.69-12.78 55.83-12.78L55.83-12.78 55.4-12.78 55.4-2.13Q55.4-1.38 55.56-1.01 55.72-0.63 56.15-0.51 56.58-0.39 57.4-0.37L57.4-0.37 57.4 0Q56.82-0.02 55.86-0.04 54.9-0.06 53.85-0.06L53.85-0.06Q52.83-0.06 51.91-0.04 51-0.02 50.44 0L50.44 0 50.44-0.37Q51.28-0.39 51.71-0.51 52.14-0.63 52.29-1.01 52.44-1.38 52.44-2.13L52.44-2.13 52.44-12.78 52.03-12.78Q51.17-12.78 50.53-12.4 49.9-12.02 49.45-11.11 49-10.21 48.67-8.62L48.67-8.62 48.24-8.62Q48.27-8.88 48.28-9.26 48.29-9.63 48.29-10.04L48.29-10.04Q48.29-10.51 48.27-11.38 48.24-12.26 48.16-13.21L48.16-13.21Q49.02-13.19 50.04-13.17 51.06-13.16 52.08-13.16 53.11-13.16 53.93-13.16L53.93-13.16Q54.77-13.16 55.79-13.16 56.8-13.16 57.83-13.17 58.86-13.19 59.68-13.21ZM70.78-13.21L70.78-13.21Q70.7-12.39 70.68-11.63 70.65-10.86 70.65-10.45L70.65-10.45Q70.65-10.08 70.67-9.74 70.69-9.4 70.7-9.18L70.7-9.18 70.28-9.18Q70.09-10.54 69.7-11.34 69.31-12.13 68.68-12.46 68.06-12.78 67.22-12.78L67.22-12.78 66.45-12.78Q65.89-12.78 65.62-12.69 65.35-12.6 65.26-12.33 65.16-12.05 65.16-11.46L65.16-11.46 65.16-1.75Q65.16-1.18 65.26-0.9 65.35-0.62 65.62-0.52 65.89-0.43 66.45-0.43L66.45-0.43 67.36-0.43Q68.2-0.43 68.85-0.79 69.49-1.16 69.95-2.03 70.41-2.91 70.65-4.4L70.65-4.4 71.08-4.4Q71.02-3.81 71.02-2.84L71.02-2.84Q71.02-2.41 71.04-1.62 71.06-0.84 71.15 0L71.15 0Q70.2-0.04 69.01-0.05 67.81-0.06 66.88-0.06L66.88-0.06Q66.25-0.06 65.2-0.06 64.16-0.06 62.98-0.05 61.8-0.04 60.8 0L60.8 0 60.8-0.37Q61.39-0.41 61.69-0.52 61.99-0.63 62.09-0.97 62.2-1.31 62.2-1.98L62.2-1.98 62.2-11.23Q62.2-11.92 62.09-12.25 61.99-12.58 61.68-12.7 61.37-12.82 60.8-12.84L60.8-12.84 60.8-13.21Q61.8-13.19 62.98-13.17 64.16-13.16 65.2-13.16 66.25-13.16 66.88-13.16L66.88-13.16Q67.74-13.16 68.83-13.17 69.92-13.17 70.78-13.21ZM64.6-6.83L67.87-6.83Q67.87-6.83 67.87-6.64 67.87-6.46 67.87-6.46L67.87-6.46 64.6-6.46Q64.6-6.46 64.6-6.64 64.6-6.83 64.6-6.83L64.6-6.83ZM67.98-9.29L68.41-9.29Q68.34-8.23 68.34-7.67 68.35-7.11 68.35-6.64L68.35-6.64Q68.35-6.18 68.37-5.62 68.39-5.06 68.47-3.99L68.47-3.99 68.04-3.99Q67.94-4.65 67.69-5.21 67.44-5.77 66.97-6.11 66.51-6.46 65.76-6.46L65.76-6.46 65.76-6.83Q66.51-6.83 66.95-7.24 67.4-7.65 67.64-8.22 67.89-8.79 67.98-9.29L67.98-9.29ZM72.63-12.84L72.63-13.21Q73.09-13.19 73.89-13.17 74.68-13.16 75.46-13.16L75.46-13.16Q76.36-13.16 77.2-13.17 78.04-13.19 78.39-13.19L78.39-13.19Q80.99-13.19 82.27-12.34 83.56-11.49 83.56-9.95L83.56-9.95Q83.56-9.31 83.3-8.67 83.04-8.02 82.41-7.47 81.79-6.92 80.71-6.6 79.62-6.27 77.98-6.27L77.98-6.27 76.19-6.27 76.19-6.64 77.8-6.64Q78.9-6.64 79.47-7.06 80.04-7.48 80.25-8.18 80.46-8.88 80.46-9.74L80.46-9.74Q80.46-11.22 79.94-12.03 79.42-12.84 78.15-12.84L78.15-12.84Q77.42-12.84 77.21-12.52 76.99-12.2 76.99-11.23L76.99-11.23 76.99-1.98Q76.99-1.31 77.1-0.97 77.2-0.63 77.5-0.52 77.8-0.41 78.39-0.37L78.39-0.37 78.39 0Q77.89-0.04 77.12-0.05 76.36-0.06 75.58-0.06L75.58-0.06Q74.68-0.06 73.89-0.05 73.09-0.04 72.63 0L72.63 0 72.63-0.37Q73.22-0.41 73.52-0.52 73.82-0.63 73.92-0.97 74.03-1.31 74.03-1.98L74.03-1.98 74.03-11.23Q74.03-11.92 73.92-12.25 73.82-12.58 73.51-12.7 73.21-12.82 72.63-12.84L72.63-12.84ZM76.19-6.27L76.15-6.59Q76.96-6.57 77.54-6.51 78.13-6.46 78.58-6.41 79.03-6.36 79.38-6.34L79.38-6.34Q81.08-6.2 81.89-5.62 82.7-5.04 82.95-3.88L82.95-3.88 83.38-1.96Q83.54-1.21 83.73-0.91 83.92-0.62 84.27-0.62L84.27-0.62Q84.51-0.63 84.67-0.74 84.83-0.84 85.02-1.04L85.02-1.04 85.28-0.82Q84.78-0.24 84.2 0.01 83.62 0.26 82.8 0.26L82.8 0.26Q81.79 0.26 81.14-0.17 80.48-0.6 80.28-1.75L80.28-1.75 79.94-3.62Q79.81-4.4 79.62-4.99 79.44-5.58 79.11-5.92 78.78-6.27 78.21-6.27L78.21-6.27 76.19-6.27ZM97.84-13.21L97.84-13.21 97.84-12.84Q97.24-12.76 96.94-12.53 96.64-12.3 96.54-11.79 96.44-11.29 96.44-10.38L96.44-10.38 96.44 0.04Q96.21 0.02 95.98 0.02 95.75 0.02 95.49 0.04L95.49 0.04 87.39-10.23 87.39-3.06Q87.39-2.03 87.5-1.48 87.61-0.93 87.99-0.7 88.38-0.47 89.2-0.37L89.2-0.37 89.2 0Q88.84-0.04 88.26-0.05 87.69-0.06 87.18-0.06L87.18-0.06Q86.75-0.06 86.31-0.05 85.86-0.04 85.56 0L85.56 0 85.56-0.37Q86.16-0.47 86.45-0.69 86.75-0.91 86.86-1.43 86.96-1.94 86.96-2.84L86.96-2.84 86.96-11.23Q86.96-11.92 86.86-12.25 86.75-12.58 86.45-12.7 86.14-12.82 85.56-12.84L85.56-12.84 85.56-13.21Q85.86-13.19 86.31-13.17 86.75-13.16 87.18-13.16L87.18-13.16Q87.63-13.16 88.04-13.17 88.45-13.19 88.79-13.21L88.79-13.21 96.01-4.31 96.01-10.15Q96.01-11.18 95.9-11.73 95.78-12.28 95.4-12.52 95.02-12.76 94.2-12.84L94.2-12.84 94.2-13.21Q94.55-13.19 95.13-13.17 95.71-13.16 96.21-13.16L96.21-13.16Q96.66-13.16 97.1-13.17 97.54-13.19 97.84-13.21ZM105-13.25L105-13.25 109.54-1.57Q109.8-0.9 110.13-0.64 110.45-0.39 110.71-0.37L110.71-0.37 110.71 0Q110.15-0.04 109.4-0.05 108.64-0.06 107.88-0.06L107.88-0.06Q107.02-0.06 106.25-0.05 105.49-0.04 105.04 0L105.04 0 105.04-0.37Q105.99-0.41 106.24-0.7 106.5-0.99 106.12-1.94L106.12-1.94 102.95-10.62 103.29-11.1 100.45-3.71Q99.93-2.33 99.94-1.62 99.95-0.91 100.39-0.66 100.84-0.41 101.59-0.37L101.59-0.37 101.59 0Q100.97-0.04 100.41-0.05 99.85-0.06 99.27-0.06L99.27-0.06Q98.86-0.06 98.5-0.05 98.14-0.04 97.86 0L97.86 0 97.86-0.37Q98.25-0.45 98.66-0.88 99.07-1.31 99.46-2.33L99.46-2.33 103.72-13.25Q104.01-13.23 104.36-13.23 104.7-13.23 105-13.25ZM100.94-5.37L106.31-5.37 106.31-5 100.75-5 100.94-5.37ZM121.29-13.21L121.29-13.21Q121.22-12.26 121.19-11.38 121.16-10.51 121.16-10.04L121.16-10.04Q121.16-9.63 121.18-9.26 121.2-8.88 121.22-8.62L121.22-8.62 120.79-8.62Q120.49-10.19 120.03-11.1 119.58-12.02 118.94-12.4 118.31-12.78 117.45-12.78L117.45-12.78 117.02-12.78 117.02-2.13Q117.02-1.38 117.18-1.01 117.34-0.63 117.77-0.51 118.2-0.39 119.02-0.37L119.02-0.37 119.02 0Q118.44-0.02 117.48-0.04 116.52-0.06 115.47-0.06L115.47-0.06Q114.45-0.06 113.53-0.04 112.62-0.02 112.06 0L112.06 0 112.06-0.37Q112.9-0.39 113.33-0.51 113.75-0.63 113.9-1.01 114.05-1.38 114.05-2.13L114.05-2.13 114.05-12.78 113.64-12.78Q112.78-12.78 112.15-12.4 111.52-12.02 111.07-11.11 110.62-10.21 110.28-8.62L110.28-8.62 109.85-8.62Q109.89-8.88 109.9-9.26 109.91-9.63 109.91-10.04L109.91-10.04Q109.91-10.51 109.88-11.38 109.85-12.26 109.78-13.21L109.78-13.21Q110.64-13.19 111.66-13.17 112.67-13.16 113.7-13.16 114.73-13.16 115.55-13.16L115.55-13.16Q116.39-13.16 117.4-13.16 118.42-13.16 119.45-13.17 120.47-13.19 121.29-13.21ZM128.18-13.21L128.18-13.21 128.18-12.84Q127.58-12.82 127.27-12.7 126.97-12.58 126.87-12.25 126.78-11.92 126.78-11.23L126.78-11.23 126.78-1.98Q126.78-1.31 126.88-0.97 126.99-0.63 127.28-0.52 127.58-0.41 128.18-0.37L128.18-0.37 128.18 0Q127.68-0.04 126.91-0.05 126.15-0.06 125.36-0.06L125.36-0.06Q124.45-0.06 123.67-0.05 122.9-0.04 122.41 0L122.41 0 122.41-0.37Q123.01-0.41 123.31-0.52 123.61-0.63 123.71-0.97 123.81-1.31 123.81-1.98L123.81-1.98 123.81-11.23Q123.81-11.92 123.71-12.25 123.61-12.58 123.3-12.7 122.99-12.82 122.41-12.84L122.41-12.84 122.41-13.21Q122.9-13.19 123.67-13.17 124.45-13.16 125.36-13.16L125.36-13.16Q126.15-13.16 126.91-13.17 127.68-13.19 128.18-13.21ZM136.05-13.47L136.05-13.47Q138.03-13.47 139.52-12.67 141-11.87 141.82-10.37 142.64-8.86 142.64-6.72L142.64-6.72Q142.64-4.63 141.8-3.06 140.96-1.49 139.46-0.62 137.96 0.26 136.04 0.26L136.04 0.26Q134.06 0.26 132.57-0.54 131.09-1.34 130.27-2.86 129.45-4.37 129.45-6.49L129.45-6.49Q129.45-8.58 130.3-10.15 131.15-11.72 132.63-12.6 134.11-13.47 136.05-13.47ZM135.98-13.14L135.98-13.14Q134.93-13.14 134.16-12.3 133.39-11.46 132.97-9.98 132.55-8.51 132.55-6.57L132.55-6.57Q132.55-4.59 133.02-3.13 133.5-1.66 134.31-0.87 135.12-0.07 136.11-0.07L136.11-0.07Q137.16-0.07 137.93-0.91 138.7-1.75 139.12-3.24 139.54-4.72 139.54-6.64L139.54-6.64Q139.54-8.64 139.07-10.1 138.59-11.55 137.78-12.34 136.97-13.14 135.98-13.14ZM156.23-13.21L156.23-13.21 156.23-12.84Q155.63-12.76 155.33-12.53 155.03-12.3 154.93-11.79 154.83-11.29 154.83-10.38L154.83-10.38 154.83 0.04Q154.6 0.02 154.37 0.02 154.14 0.02 153.88 0.04L153.88 0.04 145.78-10.23 145.78-3.06Q145.78-2.03 145.89-1.48 146-0.93 146.38-0.7 146.77-0.47 147.59-0.37L147.59-0.37 147.59 0Q147.23-0.04 146.65-0.05 146.08-0.06 145.57-0.06L145.57-0.06Q145.14-0.06 144.69-0.05 144.25-0.04 143.95 0L143.95 0 143.95-0.37Q144.54-0.47 144.84-0.69 145.14-0.91 145.24-1.43 145.35-1.94 145.35-2.84L145.35-2.84 145.35-11.23Q145.35-11.92 145.24-12.25 145.14-12.58 144.83-12.7 144.53-12.82 143.95-12.84L143.95-12.84 143.95-13.21Q144.25-13.19 144.69-13.17 145.14-13.16 145.57-13.16L145.57-13.16Q146.02-13.16 146.43-13.17 146.84-13.19 147.18-13.21L147.18-13.21 154.4-4.31 154.4-10.15Q154.4-11.18 154.29-11.73 154.17-12.28 153.79-12.52 153.41-12.76 152.59-12.84L152.59-12.84 152.59-13.21Q152.94-13.19 153.52-13.17 154.1-13.16 154.6-13.16L154.6-13.16Q155.05-13.16 155.49-13.17 155.93-13.19 156.23-13.21ZM163.39-13.25L163.39-13.25 167.93-1.57Q168.19-0.9 168.51-0.64 168.84-0.39 169.1-0.37L169.1-0.37 169.1 0Q168.54-0.04 167.79-0.05 167.03-0.06 166.27-0.06L166.27-0.06Q165.41-0.06 164.64-0.05 163.88-0.04 163.43 0L163.43 0 163.43-0.37Q164.38-0.41 164.63-0.7 164.88-0.99 164.51-1.94L164.51-1.94 161.34-10.62 161.68-11.1 158.84-3.71Q158.32-2.33 158.33-1.62 158.34-0.91 158.78-0.66 159.23-0.41 159.98-0.37L159.98-0.37 159.98 0Q159.36-0.04 158.8-0.05 158.24-0.06 157.66-0.06L157.66-0.06Q157.25-0.06 156.89-0.05 156.52-0.04 156.25 0L156.25 0 156.25-0.37Q156.64-0.45 157.05-0.88 157.46-1.31 157.85-2.33L157.85-2.33 162.1-13.25Q162.4-13.23 162.75-13.23 163.09-13.23 163.39-13.25ZM159.32-5.37L164.7-5.37 164.7-5 159.14-5 159.32-5.37ZM175.11-13.21L175.11-13.21 175.11-12.84Q174.48-12.82 174.15-12.7 173.82-12.58 173.71-12.25 173.6-11.92 173.6-11.23L173.6-11.23 173.6-1.75Q173.6-1.18 173.68-0.9 173.77-0.62 174.02-0.52 174.27-0.43 174.78-0.43L174.78-0.43 175.69-0.43Q176.55-0.43 177.25-0.95 177.95-1.47 178.42-2.42 178.9-3.36 179.09-4.59L179.09-4.59 179.51-4.59Q179.46-3.96 179.46-2.95L179.46-2.95Q179.46-2.52 179.48-1.7 179.5-0.88 179.59 0L179.59 0Q178.64-0.04 177.44-0.05 176.25-0.06 175.32-0.06L175.32-0.06Q174.68-0.06 173.64-0.06 172.59-0.06 171.42-0.05 170.24-0.04 169.23 0L169.23 0 169.23-0.37Q169.83-0.41 170.13-0.52 170.43-0.63 170.53-0.97 170.63-1.31 170.63-1.98L170.63-1.98 170.63-11.23Q170.63-11.92 170.53-12.25 170.43-12.58 170.12-12.7 169.81-12.82 169.23-12.84L169.23-12.84 169.23-13.21Q169.7-13.19 170.49-13.17 171.29-13.16 172.18-13.16L172.18-13.16Q173-13.16 173.8-13.17 174.59-13.19 175.11-13.21Z" transform="translate(-0.6299999952316284, 13.470000267028809)"></path></g> <!----> <!----> <!----> <!----> <!----> <!----> <!----></g></g> <!----></g></g><defs v-gra="od"></defs></svg>